<svg width="578" height="231" viewBox="0 0 578 231" fill="none" xmlns="http://www.w3.org/2000/svg">
<g id="homehookah-logo">
<rect id="hh-window-accent" x="489" y="42.0889" width="47" height="54.8136" fill="#724CFB"/>
<rect id="hh-window-white" x="401" y="42.0889" width="47" height="54.8136" fill="white"/>
<g id="hh-text">
<g id="hh-hookah">
<path id="h-letter-2" d="M89.4617 134.098V188.911H78.5702V165.519H52.971V188.911H42V134.098H52.971V156.255H78.5702V134.098H89.4617Z" fill="white"/>
<path id="k-letter" d="M311 189.89V135.153H321.971V161.171L345.662 135.076H357.746L336.122 159.395L359.098 189.89H346.775L329.206 166.189L321.971 173.523V189.89H311Z" fill="white"/>
<path id="a-letter" d="M419.685 134.098H429.447L451.053 188.911H439.69L434.409 175.246H414.564L409.363 188.911H398L419.685 134.098ZM432.408 167.758L424.566 146.218L416.404 167.758H432.408Z" fill="white"/>
<path id="infinity-mark" d="M202.364 152.417C187.798 138.732 177.915 134.098 163.558 134.098C141.294 134.098 126 145.249 126 161.613C126 177.833 141.189 188.911 163.454 188.911C178.227 188.911 188.735 183.987 202.364 170.809C215.993 183.987 226.5 188.911 241.274 188.911C263.538 188.911 278.727 177.833 278.727 161.613C278.727 145.249 263.434 134.098 241.17 134.098C226.812 134.098 216.929 138.732 202.364 152.417ZM264.616 161.613C264.616 171.461 253.55 177.688 241.17 177.688C231.078 177.688 223.795 173.705 211.831 161.613C225.668 148.869 232.014 145.321 240.962 145.321C253.446 145.321 264.616 151.621 264.616 161.613ZM140.112 161.613C140.112 151.621 151.281 145.321 163.766 145.321C172.713 145.321 179.059 148.869 192.896 161.613C180.932 173.705 173.649 177.688 163.558 177.688C151.177 177.688 140.112 171.461 140.112 161.613Z" fill="white"/>
<path id="h-letter-3" d="M536 134.098V188.911H524.985V165.519H499.095V188.911H488V134.098H499.095V156.255H524.985V134.098H536Z" fill="white"/>
</g>
<g id="hh-home">
<path id="m-letter" d="M265.135 96.9024V60.6174L250.553 87.6382H244.577L229.996 60.6174V96.9024H219V42.0889H230.793L247.526 73.2786L264.418 42.0889H276.131V96.9024H265.135Z" fill="white"/>
<path id="o-letter-3" d="M154.125 96.9024C150.049 96.9024 146.338 96.1411 142.993 94.6185C139.7 93.0452 136.852 90.9897 134.448 88.452C132.096 85.8636 130.267 82.9199 128.96 79.6209C127.653 76.322 127 72.9469 127 69.4956C127 65.8922 127.679 62.4409 129.038 59.142C130.45 55.843 132.357 52.9247 134.761 50.387C137.218 47.8494 140.118 45.8446 143.463 44.3728C146.808 42.8502 150.44 42.0889 154.36 42.0889C158.385 42.0889 162.043 42.9009 165.336 44.525C168.681 46.0984 171.529 48.1793 173.881 50.7677C176.233 53.3561 178.062 56.2998 179.369 59.5988C180.675 62.8977 181.329 66.2474 181.329 69.6479C181.329 73.2514 180.649 76.7026 179.29 80.0016C177.931 83.2498 176.05 86.1427 173.646 88.6804C171.242 91.1673 168.367 93.1721 165.022 94.6947C161.677 96.1665 158.045 96.9024 154.125 96.9024ZM137.976 69.4956C137.976 71.8303 138.341 74.0888 139.073 76.2712C139.805 78.4536 140.85 80.3822 142.209 82.0571C143.62 83.7319 145.319 85.0769 147.305 86.092C149.343 87.107 151.643 87.6146 154.204 87.6146C156.817 87.6146 159.116 87.107 161.102 86.092C163.141 85.0262 164.839 83.6304 166.198 81.9048C167.609 80.1792 168.655 78.2506 169.334 76.119C170.066 73.9366 170.432 71.7288 170.432 69.4956C170.432 67.161 170.04 64.9025 169.256 62.7201C168.524 60.5377 167.452 58.6091 166.041 56.9342C164.682 55.2593 162.984 53.9398 160.946 52.9754C158.96 51.9604 156.712 51.4529 154.204 51.4529C151.59 51.4529 149.265 51.9858 147.226 53.0516C145.188 54.0666 143.489 55.437 142.131 57.1626C140.772 58.8375 139.726 60.7661 138.995 62.9485C138.315 65.0801 137.976 67.2625 137.976 69.4956Z" fill="white"/>
<path id="e-letter" d="M353.282 87.561V96.9024H314V42.0889H352.565V51.4303H324.996V64.6319H348.82V73.2786H324.996V87.561H353.282Z" fill="white"/>
<path id="h-letter" d="M89.5691 42.0889V96.9024H78.6529V73.5102H52.9959V96.9024H42V42.0889H52.9959V64.2459H78.6529V42.0889H89.5691Z" fill="white"/>
</g>
</g>
<path id="hh-border-bottom" d="M0.000906177 226.105H578V231H0L0.000906177 226.105Z" fill="white"/>
<path id="hh-border-top" d="M0.000466569 0H578V4.89407H0L0.000466569 0Z" fill="white"/>
<path id="hh-border-left" d="M4.03606e-06 0H5V231H0L4.03606e-06 0Z" fill="white"/>
<path id="hh-border-right" d="M573 0H578V231H573L573 0Z" fill="white"/>
</g>
</svg>
